<?xml version="1.0" standalone="no"?>
<!DOCTYPE svg PUBLIC "-//W3C//DTD SVG 20010904//EN"
 "http://www.w3.org/TR/2001/REC-SVG-20010904/DTD/svg10.dtd">
<svg version="1.0" xmlns="http://www.w3.org/2000/svg"
 width="620.000000pt" height="603.000000pt" viewBox="0 0 620.000000 603.000000"
 preserveAspectRatio="xMidYMid meet">

<g transform="translate(0.000000,603.000000) scale(0.100000,-0.100000)"
fill="#000000" stroke="none">
<path d="M0 3015 l0 -3015 3100 0 3100 0 0 3015 0 3015 -3100 0 -3100 0 0
-3015z m2934 2130 c50 -21 87 -80 89 -141 1 -27 -5 -95 -13 -151 -12 -92 -12
-116 4 -245 47 -383 27 -681 -74 -1078 -23 -88 -38 -165 -35 -170 13 -20 32
-9 53 33 26 52 114 208 217 387 113 197 125 220 158 278 l29 53 -26 58 c-55
122 -26 221 81 275 122 61 278 -72 243 -206 -13 -49 -42 -83 -117 -139 -53
-39 -83 -84 -170 -249 -22 -41 -71 -131 -110 -200 -88 -157 -116 -211 -110
-216 2 -3 101 43 218 102 365 182 741 365 814 395 98 42 141 74 178 136 51 86
120 104 215 57 69 -34 97 -79 97 -159 0 -49 -5 -67 -28 -101 -55 -81 -146
-106 -222 -59 -63 39 -107 34 -268 -31 -353 -141 -719 -333 -916 -481 -2 -2
-2 -5 1 -8 3 -3 68 10 144 29 248 60 347 71 649 70 206 0 299 -5 390 -18 204
-31 241 -31 318 -2 77 29 122 32 172 11 101 -41 134 -169 71 -266 -35 -52 -80
-79 -134 -79 -63 0 -99 19 -173 91 -72 70 -91 79 -229 103 -340 59 -706 41
-1076 -54 -161 -41 -300 -91 -645 -233 -114 -47 -217 -88 -229 -92 l-22 -7 18
33 c11 19 22 36 25 39 3 3 28 43 54 90 170 300 281 646 316 988 16 153 7 504
-17 650 -19 121 -22 126 -124 207 -52 41 -70 75 -70 129 0 62 40 134 92 166
40 24 111 26 162 5z m-164 -993 c0 -32 -5 -41 -25 -50 -19 -9 -182 -12 -585
-12 l-560 0 -2 -851 c-2 -673 0 -853 9 -856 7 -3 228 9 490 26 789 52 1359 90
1703 112 179 11 330 22 337 24 8 3 12 81 15 274 3 297 6 310 55 271 15 -12 31
-31 35 -43 3 -12 6 -199 7 -414 l1 -393 -37 -1 c-21 0 -256 -17 -523 -37
l-485 -37 -3 -102 -3 -103 34 0 c67 0 127 -12 127 -26 0 -8 -4 -14 -9 -14 -5
0 -123 -9 -263 -20 -403 -31 -631 -41 -642 -30 -14 14 6 26 58 34 22 4 58 11
79 17 l37 10 0 95 0 96 -62 -6 c-35 -3 -169 -13 -298 -21 -322 -21 -653 -44
-722 -50 l-58 -5 0 1075 0 1075 645 0 645 0 0 -38z m1222 -994 c81 -46 86
-139 12 -197 -45 -36 -122 -21 -158 31 -23 33 -20 100 5 132 35 45 97 59 141
34z m-2089 -1620 c15 1 27 -3 27 -8 0 -6 8 -10 19 -10 20 0 33 -30 21 -49 -6
-11 -13 -11 -55 4 -11 4 -40 9 -65 10 -38 2 -51 -2 -80 -28 -32 -28 -35 -36
-36 -89 -1 -54 1 -60 26 -73 14 -7 32 -20 38 -28 12 -14 90 -17 122 -4 8 3 25
7 38 10 19 5 22 2 20 -24 -2 -20 -8 -29 -20 -29 -9 0 -20 -5 -24 -11 -3 -6
-16 -8 -27 -5 -12 3 -27 0 -34 -5 -9 -8 -26 -7 -60 5 -27 8 -61 19 -77 24 -25
7 -35 20 -59 77 l-29 68 20 41 c12 23 25 53 31 68 8 20 19 29 48 34 21 4 52
13 68 20 17 7 37 10 45 7 8 -3 27 -6 43 -5z m1762 1 c20 0 74 -20 76 -29 1 -3
3 -15 4 -28 2 -21 -1 -22 -29 -16 -17 3 -35 9 -41 12 -5 4 -32 7 -60 8 -39 1
-56 -4 -78 -22 -16 -13 -33 -24 -38 -24 -5 0 -9 -28 -9 -63 0 -62 1 -63 41
-94 37 -29 46 -31 96 -27 67 6 76 10 70 35 -3 11 0 19 5 19 6 0 6 6 -2 15 -8
9 -25 13 -50 11 -30 -2 -39 1 -43 14 -6 25 7 42 26 34 10 -3 24 -1 32 6 13 11
20 10 41 0 19 -11 27 -11 36 -2 7 7 14 12 18 12 3 0 5 -38 5 -85 0 -73 -2 -85
-17 -85 -9 0 -24 -7 -32 -16 -9 -9 -24 -13 -35 -9 -10 3 -30 1 -43 -6 -20 -9
-32 -8 -56 5 -17 9 -44 16 -60 16 -40 0 -56 16 -87 88 l-28 63 29 61 c36 77
47 88 87 88 18 1 43 7 57 15 14 8 34 12 45 9 11 -3 29 -5 40 -5z m-1050 -57
c7 -23 24 -55 39 -72 14 -17 33 -55 41 -84 9 -29 27 -63 40 -76 28 -26 33 -42
11 -34 -8 3 -17 1 -20 -4 -9 -14 -46 -2 -46 14 0 8 -4 14 -10 14 -5 0 -10 9
-10 19 0 23 -25 29 -115 29 -65 1 -97 -11 -89 -32 3 -7 -2 -16 -11 -20 -9 -3
-13 -11 -9 -18 5 -8 2 -9 -9 -5 -9 3 -19 1 -23 -4 -4 -7 -10 -7 -16 -1 -6 6
-17 8 -24 5 -23 -9 -16 12 16 42 17 16 32 43 36 64 3 20 20 54 37 75 17 22 36
60 43 85 8 35 17 47 35 52 46 11 71 -4 84 -49z m1275 46 c15 -9 29 -10 61 -1
29 7 51 8 71 1 26 -9 53 -7 92 8 13 5 16 -1 16 -35 0 -36 -2 -41 -17 -33 -15
7 -139 9 -190 3 -6 0 -11 -15 -11 -32 1 -40 34 -57 76 -40 24 10 34 10 51 -1
17 -10 25 -10 41 0 26 16 25 17 26 -22 l0 -33 -80 3 c-106 4 -114 1 -114 -41
0 -42 6 -45 125 -41 98 2 106 -2 95 -47 -4 -14 -10 -17 -26 -12 -11 4 -33 7
-48 7 -26 -1 -73 -2 -135 -1 -16 0 -41 -1 -58 -3 -27 -3 -30 0 -27 22 9 71 9
228 0 252 -19 50 8 73 52 46z m552 -42 c4 -20 24 -58 43 -83 19 -25 35 -54 35
-65 0 -25 23 -69 49 -92 21 -20 29 -42 11 -31 -6 4 -17 2 -25 -5 -8 -7 -15 -7
-19 -1 -4 6 -14 7 -23 4 -11 -4 -14 -3 -9 5 4 7 0 15 -9 18 -9 4 -14 13 -11
20 9 23 -25 32 -104 29 -102 -3 -100 -2 -100 -25 0 -11 -4 -20 -10 -20 -5 0
-10 -6 -10 -14 0 -16 -43 -30 -48 -16 -2 5 -10 6 -18 3 -22 -8 -16 11 11 37
14 13 32 46 40 73 8 28 27 66 42 86 16 19 33 53 38 75 12 44 38 58 85 46 18
-5 26 -16 32 -44z m-2318 -52 c0 -50 -4 -96 -8 -103 -11 -18 13 -69 35 -76 10
-4 24 -3 31 2 7 4 41 8 76 8 64 0 68 -3 62 -45 -3 -21 -4 -22 -35 -10 -19 7
-38 7 -66 -1 -30 -9 -45 -9 -65 0 -20 9 -34 9 -60 -1 -42 -15 -66 0 -47 31 7
12 10 64 9 152 l-3 134 36 0 36 0 -1 -91z m786 67 c0 -15 11 -42 24 -59 13
-18 29 -59 36 -92 11 -52 16 -60 36 -60 18 0 25 8 33 38 6 20 11 46 11 56 0
11 10 30 22 43 11 12 24 39 27 60 l6 38 53 1 c53 1 53 0 46 -25 -4 -14 -7 -42
-6 -61 1 -32 1 -82 0 -155 -1 -16 2 -40 6 -51 6 -17 3 -22 -16 -26 -52 -9 -55
-4 -52 90 2 48 4 96 6 106 2 10 -3 21 -9 23 -14 5 -33 -36 -33 -71 0 -12 -11
-37 -25 -56 -14 -19 -25 -46 -25 -61 0 -28 -21 -38 -67 -31 -19 3 -23 10 -23
36 0 19 -8 40 -19 50 -10 9 -21 37 -25 63 -6 47 -20 73 -39 73 -6 0 -7 -18 -3
-47 4 -27 7 -59 6 -73 -3 -55 -3 -66 4 -81 8 -18 -20 -27 -62 -21 -19 3 -21 7
-15 25 9 27 8 244 -1 272 -7 19 -3 21 48 22 54 1 56 0 56 -26z m445 -1 c-4
-14 -6 -41 -5 -60 1 -19 2 -51 2 -70 0 -19 -1 -51 -2 -70 -1 -19 1 -48 5 -63
8 -28 7 -28 -36 -25 -34 2 -43 7 -40 18 8 27 8 245 0 266 -10 28 -8 29 41 29
39 0 41 -1 35 -25z"/>
<path d="M2792 5055 c-73 -62 -32 -175 64 -175 80 0 124 70 90 142 -29 60
-103 76 -154 33z"/>
<path d="M3433 4348 c-46 -22 -50 -99 -8 -141 40 -40 126 -10 141 48 8 31 -12
82 -37 95 -23 13 -68 12 -96 -2z"/>
<path d="M4463 4036 c-50 -22 -61 -100 -20 -143 47 -51 147 -14 149 55 1 45
-19 79 -55 92 -37 12 -35 12 -74 -4z"/>
<path d="M4803 3295 c-39 -17 -53 -42 -53 -93 0 -54 38 -92 92 -92 103 0 136
140 43 185 -39 18 -41 18 -82 0z"/>
<path d="M2537 1454 c-4 -4 -7 -20 -7 -35 0 -15 -7 -29 -15 -33 -22 -8 -20
-56 3 -56 10 0 23 5 30 12 8 8 15 8 28 -3 14 -11 18 -11 30 6 12 16 12 21 -5
39 -11 12 -21 32 -23 46 -3 24 -27 38 -41 24z"/>
<path d="M4360 1428 c0 -22 -7 -37 -20 -46 -22 -14 -24 -20 -10 -42 7 -12 12
-12 34 -1 20 11 28 12 40 2 8 -7 20 -10 26 -6 15 9 12 43 -4 52 -8 4 -16 22
-18 38 -2 22 -9 31 -25 33 -20 3 -23 -1 -23 -30z"/>
</g>
</svg>
